<svg id="Layer_1" data-name="Layer 1" xmlns="http://www.w3.org/2000/svg" viewBox="0 0 459.75 350.07"><defs><style>.cls-1{fill:#766458;}.cls-2{fill:#81b3d3;}.cls-3{fill:#fff;}</style></defs><title>Artboard 1</title><path class="cls-3" d="M44.47,157.61a20.45,20.45,0,0,0-12.9-5c-3.58,0-8.34,2.08-8.34,6.25,0,4.37,5.26,6.06,8.63,7.15l5,1.49c10.42,3.07,18.46,8.33,18.46,20.44,0,7.45-1.79,15.09-7.74,20.15s-13.7,7.05-21.24,7.05A46.22,46.22,0,0,1,0,206.64L8.34,191c4.86,4.27,10.62,7.74,17.27,7.74,4.57,0,9.43-2.28,9.43-7.54,0-5.46-7.64-7.35-11.81-8.54C11,179.15,3,176,3,161.48c0-15.19,10.82-25.11,25.81-25.11a51.2,51.2,0,0,1,23.42,6.15Z"/><path class="cls-3" d="M91.83,154.83v12.51h21.94v16.48H91.83v12.9H115V213.2H72.38V138.35H115v16.48Z"/><path class="cls-3" d="M129.42,138.35H157c20.85,0,38,16.38,38,37.42s-17.27,37.42-38,37.42H129.42Zm19.45,58.37h4.37c11.61,0,21.54-6.35,21.54-20.94,0-13.41-8.84-20.95-21.34-20.95h-4.57Z"/><path class="cls-3" d="M286.87,174.38c0,24.22-17.37,41.3-41.39,41.3s-41.39-17.07-41.39-41.3c0-22.63,19.85-38.51,41.39-38.51S286.87,151.75,286.87,174.38Zm-62.53.1c0,12.91,9.53,22.34,21.14,22.34s21.14-9.43,21.14-22.34c0-10.32-9.52-19.75-21.14-19.75S224.34,164.16,224.34,174.48Z"/><path class="cls-3" d="M297.24,138.35h19.45l35.64,45.76h.2V138.35H372v74.84H352.53l-35.64-45.85h-.2v45.85H297.24Z"/><path class="cls-3" d="M407.35,200.19l-5.16,13H381.54l28.79-74.84h21.24l28.18,74.84H439l-4.86-13ZM421,161.48h-.2l-8,23.82h16.18Z"/></svg>
